<svg xmlns="http://www.w3.org/2000/svg" viewBox="0 0 25 25">
  <rect x="0" y="0" width="25" height="25" fill="#080b10"/>
  <g fill="#e2b85c"><rect x="2" y="2" width="1" height="1"/><rect x="3" y="2" width="1" height="1"/><rect x="21" y="2" width="1" height="1"/><rect x="22" y="2" width="1" height="1"/><rect x="2" y="3" width="1" height="1"/><rect x="22" y="3" width="1" height="1"/><rect x="4" y="9" width="1" height="1"/><rect x="5" y="9" width="1" height="1"/><rect x="6" y="9" width="1" height="1"/><rect x="7" y="9" width="1" height="1"/><rect x="8" y="9" width="1" height="1"/><rect x="10" y="9" width="1" height="1"/><rect x="14" y="9" width="1" height="1"/><rect x="16" y="9" width="1" height="1"/><rect x="17" y="9" width="1" height="1"/><rect x="18" y="9" width="1" height="1"/><rect x="19" y="9" width="1" height="1"/><rect x="20" y="9" width="1" height="1"/><rect x="6" y="10" width="1" height="1"/><rect x="10" y="10" width="1" height="1"/><rect x="14" y="10" width="1" height="1"/><rect x="16" y="10" width="1" height="1"/><rect x="6" y="11" width="1" height="1"/><rect x="10" y="11" width="1" height="1"/><rect x="14" y="11" width="1" height="1"/><rect x="16" y="11" width="1" height="1"/><rect x="17" y="11" width="1" height="1"/><rect x="18" y="11" width="1" height="1"/><rect x="19" y="11" width="1" height="1"/><rect x="20" y="11" width="1" height="1"/><rect x="6" y="12" width="1" height="1"/><rect x="10" y="12" width="1" height="1"/><rect x="14" y="12" width="1" height="1"/><rect x="16" y="12" width="1" height="1"/><rect x="6" y="13" width="1" height="1"/><rect x="10" y="13" width="1" height="1"/><rect x="14" y="13" width="1" height="1"/><rect x="16" y="13" width="1" height="1"/><rect x="6" y="14" width="1" height="1"/><rect x="10" y="14" width="1" height="1"/><rect x="14" y="14" width="1" height="1"/><rect x="16" y="14" width="1" height="1"/><rect x="4" y="15" width="1" height="1"/><rect x="5" y="15" width="1" height="1"/><rect x="6" y="15" width="1" height="1"/><rect x="7" y="15" width="1" height="1"/><rect x="8" y="15" width="1" height="1"/><rect x="11" y="15" width="1" height="1"/><rect x="12" y="15" width="1" height="1"/><rect x="13" y="15" width="1" height="1"/><rect x="16" y="15" width="1" height="1"/><rect x="2" y="21" width="1" height="1"/><rect x="22" y="21" width="1" height="1"/><rect x="2" y="22" width="1" height="1"/><rect x="3" y="22" width="1" height="1"/><rect x="21" y="22" width="1" height="1"/><rect x="22" y="22" width="1" height="1"/></g>
</svg>
