<svg xmlns="http://www.w3.org/2000/svg" viewBox="0 0 41 41">
  <rect x="0" y="0" width="41" height="41" fill="#080b10"/>
  <g fill="#e2b85c"><rect x="12" y="17" width="1" height="1"/><rect x="13" y="17" width="1" height="1"/><rect x="14" y="17" width="1" height="1"/><rect x="15" y="17" width="1" height="1"/><rect x="16" y="17" width="1" height="1"/><rect x="18" y="17" width="1" height="1"/><rect x="22" y="17" width="1" height="1"/><rect x="24" y="17" width="1" height="1"/><rect x="25" y="17" width="1" height="1"/><rect x="26" y="17" width="1" height="1"/><rect x="27" y="17" width="1" height="1"/><rect x="28" y="17" width="1" height="1"/><rect x="14" y="18" width="1" height="1"/><rect x="18" y="18" width="1" height="1"/><rect x="22" y="18" width="1" height="1"/><rect x="24" y="18" width="1" height="1"/><rect x="14" y="19" width="1" height="1"/><rect x="18" y="19" width="1" height="1"/><rect x="22" y="19" width="1" height="1"/><rect x="24" y="19" width="1" height="1"/><rect x="25" y="19" width="1" height="1"/><rect x="26" y="19" width="1" height="1"/><rect x="27" y="19" width="1" height="1"/><rect x="28" y="19" width="1" height="1"/><rect x="14" y="20" width="1" height="1"/><rect x="18" y="20" width="1" height="1"/><rect x="22" y="20" width="1" height="1"/><rect x="24" y="20" width="1" height="1"/><rect x="14" y="21" width="1" height="1"/><rect x="18" y="21" width="1" height="1"/><rect x="22" y="21" width="1" height="1"/><rect x="24" y="21" width="1" height="1"/><rect x="14" y="22" width="1" height="1"/><rect x="18" y="22" width="1" height="1"/><rect x="22" y="22" width="1" height="1"/><rect x="24" y="22" width="1" height="1"/><rect x="12" y="23" width="1" height="1"/><rect x="13" y="23" width="1" height="1"/><rect x="14" y="23" width="1" height="1"/><rect x="15" y="23" width="1" height="1"/><rect x="16" y="23" width="1" height="1"/><rect x="19" y="23" width="1" height="1"/><rect x="20" y="23" width="1" height="1"/><rect x="21" y="23" width="1" height="1"/><rect x="24" y="23" width="1" height="1"/></g>
</svg>
